<svg xmlns="http://www.w3.org/2000/svg" version="1.1" xmlns:xlink="http://www.w3.org/1999/xlink" xmlns:svgjs="http://svgjs.dev/svgjs" width="1500" height="1500" viewBox="0 0 1500 1500"><rect width="1500" height="1500" fill="#ffffff"></rect><g transform="matrix(0.6666666666666666,0,0,0.6666666666666666,249.39393939393938,438.5856950067477)"><svg viewBox="0 0 396 247" data-background-color="#ffffff" preserveAspectRatio="xMidYMid meet" height="935" width="1500" xmlns="http://www.w3.org/2000/svg" xmlns:xlink="http://www.w3.org/1999/xlink"><g id="tight-bounds" transform="matrix(1,0,0,1,0.2400000000000091,-0.09999999999999432)"><svg viewBox="0 0 395.52 247.2" height="247.2" width="395.52"><g><svg></svg></g><g><svg viewBox="0 0 395.52 247.2" height="247.2" width="395.52"><g transform="matrix(1,0,0,1,75.54432,83.75884392797931)"><svg viewBox="0 0 244.43135999999998 79.68231214404136" height="79.68231214404136" width="244.43135999999998"><g><svg viewBox="0 0 244.43135999999998 79.68231214404136" height="79.68231214404136" width="244.43135999999998"><g><svg viewBox="0 0 244.43135999999998 79.68231214404136" height="79.68231214404136" width="244.43135999999998"><g><svg viewBox="0 0 244.43135999999998 79.68231214404136" height="79.68231214404136" width="244.43135999999998"><g id="textblocktransform"><svg viewBox="0 0 244.43135999999998 79.68231214404136" height="79.68231214404136" width="244.43135999999998" id="textblock"><g><svg viewBox="0 0 244.43135999999998 43.469445602590234" height="43.469445602590234" width="244.43135999999998"><g transform="matrix(1,0,0,1,0,0)"><svg width="244.43135999999998" viewBox="3.25 -35.45 203.57 36.21" height="43.469445602590234" data-palette-color="#2a2c35"><path d="M31.25-35.01L31.25 0 23.75 0 10.25-23.05 10.25 0 3.25 0 3.25-35.01 10.74-35.01 24.24-11.94 24.24-35.01 31.25-35.01ZM44.75-35.01L44.75 0 37.74 0 37.74-35.01 44.75-35.01ZM58.25-7.01L58.25 0 51.24 0 51.24-35.01 58.25-35.01 58.25-17.5 71.28-35.01 79.24-35.01 68.18-20.24 79.24 0 71.28 0 63.59-14.16 58.25-7.01ZM107-7.01L107 0 82.49 0 82.49-35.01 89.49-35.01 89.49-7.01 107-7.01ZM143.74-17.36L143.74-17.36Q143.74-14.87 143.09-12.56 142.45-10.25 141.27-8.24 140.1-6.23 138.44-4.57 136.78-2.91 134.78-1.72 132.78-0.54 130.46 0.11 128.14 0.76 125.65 0.76L125.65 0.76Q123.16 0.76 120.85 0.11 118.54-0.54 116.53-1.72 114.52-2.91 112.86-4.57 111.2-6.23 110.01-8.24 108.83-10.25 108.18-12.56 107.53-14.87 107.53-17.36L107.53-17.36Q107.53-19.85 108.18-22.17 108.83-24.49 110.01-26.49 111.2-28.49 112.86-30.15 114.52-31.81 116.53-32.98 118.54-34.16 120.85-34.8 123.16-35.45 125.65-35.45L125.65-35.45Q128.14-35.45 130.46-34.8 132.78-34.16 134.78-32.98 136.78-31.81 138.44-30.15 140.1-28.49 141.27-26.49 142.45-24.49 143.09-22.17 143.74-19.85 143.74-17.36ZM136.78-17.36L136.78-17.36Q136.78-19.65 135.9-21.69 135.02-23.73 133.52-25.23 132.02-26.73 129.98-27.61 127.94-28.49 125.65-28.49L125.65-28.49Q123.33-28.49 121.3-27.61 119.28-26.73 117.76-25.23 116.25-23.73 115.37-21.69 114.49-19.65 114.49-17.36L114.49-17.36Q114.49-15.06 115.37-13.05 116.25-11.04 117.76-9.52 119.28-8.01 121.3-7.13 123.33-6.25 125.65-6.25L125.65-6.25Q127.94-6.25 129.98-7.13 132.02-8.01 133.52-9.52 135.02-11.04 135.9-13.05 136.78-15.06 136.78-17.36ZM176.33-35.01L176.33 0 168.84 0 155.33-23.05 155.33 0 148.33 0 148.33-35.01 155.82-35.01 169.32-11.94 169.32-35.01 176.33-35.01ZM206.82-7.01L206.82 0 182.82 0 182.82-35.01 206.82-35.01 206.82-28 189.83-28 189.83-21 201.33-21 201.33-13.99 189.83-13.99 189.83-7.01 206.82-7.01Z" opacity="1" transform="matrix(1,0,0,1,0,0)" fill="#000000" class="wordmark-text-0" data-fill-palette-color="primary" id="text-0"></path></svg></g></svg></g><g transform="matrix(1,0,0,1,102.78338688,53.73153844266733)"><svg viewBox="0 0 141.64797312 25.950773701374043" height="25.950773701374043" width="141.64797312"><g transform="matrix(1,0,0,1,0,0)"><svg width="141.64797312" viewBox="-0.25 -37.65 209.58 38.4" height="25.950773701374043" data-palette-color="#2a2c35"><path d="M17.85-34.55L24.35-34.55 15.25-13.15 15.25 0 8.85 0 8.85-13.1-0.25-34.55 6.5-34.55 12.15-18.3 17.85-34.55ZM36.35-27.15Q41.35-27.15 44.12-23.65 46.9-20.15 46.9-13.25L46.9-13.25Q46.9-6.65 44.1-2.95 41.3 0.75 36.35 0.75L36.35 0.75Q31.4 0.75 28.6-2.88 25.8-6.5 25.8-13.25L25.8-13.25Q25.8-19.95 28.6-23.55 31.4-27.15 36.35-27.15L36.35-27.15ZM36.35-22.5Q34.2-22.5 33.2-20.38 32.2-18.25 32.2-13.25L32.2-13.25Q32.2-8.2 33.2-6.08 34.2-3.95 36.35-3.95L36.35-3.95Q38.5-3.95 39.5-6.08 40.5-8.2 40.5-13.25L40.5-13.25Q40.5-18.3 39.5-20.4 38.5-22.5 36.35-22.5L36.35-22.5ZM69.59-26.45L69.59 0 64.25 0 63.95-3.35Q62.7-1.3 61.14-0.28 59.59 0.75 57.55 0.75L57.55 0.75Q54.64 0.75 52.97-1.3 51.3-3.35 51.3-6.65L51.3-6.65 51.3-26.45 57.45-26.45 57.45-7Q57.45-3.9 59.55-3.9L59.55-3.9Q60.74-3.9 61.7-4.83 62.64-5.75 63.45-7.45L63.45-7.45 63.45-26.45 69.59-26.45ZM86.94-27.1Q88.09-27.1 88.99-26.75L88.99-26.75 87.99-20.85Q86.99-21.1 86.14-21.1L86.14-21.1Q84.24-21.1 83.14-19.45 82.04-17.8 81.44-14.55L81.44-14.55 81.44 0 75.29 0 75.29-26.45 80.64-26.45 81.09-21.85Q82.94-27.1 86.94-27.1L86.94-27.1ZM109.04-27.15Q113.74-27.15 116.99-24.05L116.99-24.05 114.64-20.7Q113.24-21.7 111.99-22.2 110.74-22.7 109.44-22.7L109.44-22.7Q107.99-22.7 107.16-21.93 106.34-21.15 106.34-19.8L106.34-19.8Q106.34-18.45 107.26-17.63 108.19-16.8 110.99-15.7L110.99-15.7Q114.44-14.35 116.09-12.5 117.74-10.65 117.74-7.55L117.74-7.55Q117.74-3.7 115.04-1.48 112.34 0.75 108.19 0.75L108.19 0.75Q105.49 0.75 103.21-0.23 100.94-1.2 99.24-2.95L99.24-2.95 102.24-6.25Q105.04-3.8 107.94-3.8L107.94-3.8Q109.59-3.8 110.54-4.67 111.49-5.55 111.49-7.1L111.49-7.1Q111.49-8.25 111.09-8.97 110.69-9.7 109.69-10.33 108.69-10.95 106.69-11.7L106.69-11.7Q103.24-13.05 101.76-14.85 100.29-16.65 100.29-19.45L100.29-19.45Q100.29-22.8 102.66-24.98 105.04-27.15 109.04-27.15L109.04-27.15ZM133.94-27.15Q136.79-27.15 138.44-25.1 140.09-23.05 140.09-19.6L140.09-19.6 140.09 0 133.94 0 133.94-18.9Q133.94-20.8 133.41-21.63 132.89-22.45 131.89-22.45L131.89-22.45Q129.79-22.45 127.74-18.5L127.74-18.5 127.74 0 121.59 0 121.59-37 127.74-37.65 127.74-23.3Q128.99-25.25 130.46-26.2 131.94-27.15 133.94-27.15L133.94-27.15ZM155.03-27.15Q160.03-27.15 162.81-23.65 165.58-20.15 165.58-13.25L165.58-13.25Q165.58-6.65 162.78-2.95 159.98 0.75 155.03 0.75L155.03 0.75Q150.08 0.75 147.28-2.88 144.48-6.5 144.48-13.25L144.48-13.25Q144.48-19.95 147.28-23.55 150.08-27.15 155.03-27.15L155.03-27.15ZM155.03-22.5Q152.88-22.5 151.88-20.38 150.88-18.25 150.88-13.25L150.88-13.25Q150.88-8.2 151.88-6.08 152.88-3.95 155.03-3.95L155.03-3.95Q157.18-3.95 158.18-6.08 159.18-8.2 159.18-13.25L159.18-13.25Q159.18-18.3 158.18-20.4 157.18-22.5 155.03-22.5L155.03-22.5ZM188.98-13.85Q188.98-13.4 188.83-11.3L188.83-11.3 175.18-11.3Q175.38-7.2 176.61-5.58 177.83-3.95 180.08-3.95L180.08-3.95Q181.63-3.95 182.88-4.48 184.13-5 185.58-6.15L185.58-6.15 188.13-2.65Q184.63 0.75 179.73 0.75L179.73 0.75Q174.53 0.75 171.76-2.85 168.98-6.45 168.98-13L168.98-13Q168.98-19.55 171.63-23.35 174.28-27.15 179.13-27.15L179.13-27.15Q183.78-27.15 186.38-23.78 188.98-20.4 188.98-13.85L188.98-13.85ZM182.98-15.3L182.98-15.65Q182.98-19.4 182.08-21.13 181.18-22.85 179.18-22.85L179.18-22.85Q177.33-22.85 176.36-21.18 175.38-19.5 175.18-15.3L175.18-15.3 182.98-15.3ZM200.63-27.15Q205.33-27.15 208.58-24.05L208.58-24.05 206.23-20.7Q204.83-21.7 203.58-22.2 202.33-22.7 201.03-22.7L201.03-22.7Q199.58-22.7 198.75-21.93 197.93-21.15 197.93-19.8L197.93-19.8Q197.93-18.45 198.85-17.63 199.78-16.8 202.58-15.7L202.58-15.7Q206.03-14.35 207.68-12.5 209.33-10.65 209.33-7.55L209.33-7.55Q209.33-3.7 206.63-1.48 203.93 0.75 199.78 0.75L199.78 0.75Q197.08 0.75 194.8-0.23 192.53-1.2 190.83-2.95L190.83-2.95 193.83-6.25Q196.63-3.8 199.53-3.8L199.53-3.8Q201.18-3.8 202.13-4.67 203.08-5.55 203.08-7.1L203.08-7.1Q203.08-8.25 202.68-8.97 202.28-9.7 201.28-10.33 200.28-10.95 198.28-11.7L198.28-11.7Q194.83-13.05 193.35-14.85 191.88-16.65 191.88-19.45L191.88-19.45Q191.88-22.8 194.25-24.98 196.63-27.15 200.63-27.15L200.63-27.15Z" opacity="1" transform="matrix(1,0,0,1,0,0)" fill="#000000" class="slogan-text-1" data-fill-palette-color="secondary" id="text-1"></path></svg></g></svg></g></svg></g></svg></g></svg></g></svg></g></svg></g><path d="M216.592 77.759L216.592 16.055 1.501 16.055 1.501 231.145 216.592 231.145 216.592 169.441 212.671 169.441 212.671 227.225 5.421 227.225 5.421 19.975 212.671 19.975 212.671 77.759Z" fill="#000000" stroke="transparent" data-fill-palette-color="tertiary"></path></svg></g><defs></defs></svg><rect width="395.52" height="247.2" fill="none" stroke="none" visibility="hidden"></rect></g></svg></g></svg>